<svg width="55" height="35" viewBox="0 0 55 35" fill="none" xmlns="http://www.w3.org/2000/svg">
    <g clip-path="url(#clip0_31_18)">
        <g clip-path="url(#clip1_31_18)">
            <path d="M12.5944 6.60328L13.7953 10.0722H11.3593L12.5944 6.60328ZM9.99844 1.2085L4.49969 15.9968H9.29662L10.0432 13.8537H15.1022L15.8468 15.9968H20.7484L15.2543 1.2085H9.99844Z" fill="white"/>
            <path d="M44.5522 0L43.0505 4.04061H45.9579L50.0852 0H44.5522Z" fill="#EC1C24"/>
            <path d="M50.5023 10.1397C50.5023 6.86416 48.4501 4.59668 44.858 4.59668C41.5122 4.59668 39.0466 6.86094 39.0466 10.3053C39.0466 13.7014 41.3324 15.9966 44.9239 15.9966C47.9471 15.9966 50.025 14.4755 50.4694 11.7672H46.1024C45.9134 12.3215 45.4624 12.5406 44.9219 12.5406C44.1101 12.5406 43.667 12.0952 43.4946 11.1723H50.5023V10.1397ZM43.5933 9.18514C43.7908 8.48775 44.1858 8.05333 44.8482 8.05333C45.4875 8.05333 45.9055 8.56896 46.0043 9.18514H43.5933Z" fill="white"/>
            <path d="M38.5708 9.34592C38.0296 9.10551 37.5621 9.00883 36.8735 9.00883C35.8155 9.00883 35.2005 9.41876 35.0531 9.97564V15.9969H30.3786V5.06039H35.0531V5.95114C35.6456 5.27696 36.4554 4.81934 37.6115 4.81934C38.0546 4.81934 38.4016 4.91602 38.5708 5.0127V9.34592Z" fill="white"/>
            <path d="M29.4855 9.34592C28.9443 9.10551 28.4762 9.00883 27.7875 9.00883C26.7295 9.00883 26.1146 9.41876 25.9671 9.97564V15.9969H21.2927V5.06039H25.9671V5.95114C26.5597 5.27696 27.3695 4.81934 28.5256 4.81934C28.9687 4.81934 29.3156 4.91602 29.4855 5.0127V9.34592Z" fill="white"/>
        </g>
        <rect y="20" width="54.9994" height="15" rx="7.5" fill="#4BC7B6"/>
        <path d="M4.5 29.9597C4.5 30.2612 4.74444 30.5056 5.04597 30.5056C5.3475 30.5056 5.59193 30.2612 5.59193 29.9597V25.2095C5.59193 24.908 5.3475 24.6635 5.04597 24.6635C4.74444 24.6635 4.5 24.908 4.5 25.2095V29.9597Z" fill="white"/>
        <path d="M6.45751 28.1196C6.45751 28.4211 6.70195 28.6656 7.00348 28.6656C7.30501 28.6656 7.54945 28.4211 7.54945 28.1196V26.9703C7.54945 26.6688 7.30501 26.4243 7.00348 26.4243C6.70195 26.4243 6.45751 26.6688 6.45751 26.9703V28.1196Z" fill="white"/>
        <path d="M8.42095 29.602C8.42095 29.9036 8.66538 30.148 8.96691 30.148C9.26844 30.148 9.51288 29.9036 9.51288 29.602V25.5963C9.51288 25.2948 9.26844 25.0504 8.96691 25.0504C8.66538 25.0504 8.42095 25.2948 8.42095 25.5963V29.602Z" fill="white"/>
        <path d="M10.3547 31.2572C10.3547 31.5588 10.5991 31.8032 10.9007 31.8032C11.2022 31.8032 11.4466 31.5588 11.4466 31.2572V23.7428C11.4466 23.4413 11.2022 23.1968 10.9007 23.1968C10.5991 23.1968 10.3547 23.4413 10.3547 23.7428V31.2572Z" fill="white"/>
        <path d="M12.3181 29.1969C12.3181 29.4975 12.5618 29.7412 12.8624 29.7412C13.1629 29.7412 13.4066 29.4975 13.4066 29.1969V25.8926C13.4066 25.592 13.1629 25.3483 12.8624 25.3483C12.5618 25.3483 12.3181 25.592 12.3181 25.8926V29.1969Z" fill="white"/>
        <path d="M20.0903 29.1088L22.2058 24.1772C22.3481 23.848 22.5973 23.6833 22.9532 23.6833H22.9665C23.2557 23.6833 23.4804 23.8057 23.6405 24.0504C23.734 24.1883 23.7807 24.3329 23.7807 24.4842C23.7807 24.5909 23.7562 24.6999 23.7073 24.8111L21.2315 30.597C21.0268 31.113 20.6487 31.3711 20.097 31.3711C19.5364 31.3711 19.156 31.113 18.9558 30.597L16.4733 24.8111C16.4289 24.6999 16.4066 24.5932 16.4066 24.4908C16.4066 24.3396 16.4533 24.1927 16.5468 24.0504C16.7069 23.8057 16.9316 23.6833 17.2208 23.6833H17.2408C17.5967 23.6833 17.8436 23.848 17.9815 24.1772C19.0448 26.6641 19.6588 28.0967 19.8234 28.4748C19.8234 28.4926 19.9124 28.7039 20.0903 29.1088Z" fill="white"/>
        <path d="M28.1092 25.3317C27.4952 25.3317 26.9725 25.5474 26.5409 25.979C26.1138 26.4105 25.9003 26.9333 25.9003 27.5472C25.9003 28.1567 26.1138 28.6773 26.5409 29.1088C26.9725 29.5403 27.4952 29.7561 28.1092 29.7561C28.7187 29.7561 29.2392 29.5403 29.6707 29.1088C30.1023 28.6773 30.3181 28.1567 30.3181 27.5472C30.3181 26.9333 30.1023 26.4105 29.6707 25.979C29.2392 25.5474 28.7187 25.3317 28.1092 25.3317ZM28.1092 23.6833C29.168 23.6833 30.0734 24.0593 30.8252 24.8111C31.5771 25.563 31.953 26.4684 31.953 27.5272C31.953 28.5861 31.5771 29.4914 30.8252 30.2433C30.0734 30.9951 29.168 31.3711 28.1092 31.3711C27.0503 31.3711 26.145 30.9951 25.3931 30.2433C24.6412 29.4914 24.2653 28.5861 24.2653 27.5272C24.2653 26.4684 24.6412 25.563 25.3931 24.8111C26.145 24.0593 27.0503 23.6833 28.1092 23.6833Z" fill="white"/>
        <path d="M34.0326 23.6833C34.2595 23.6833 34.4486 23.7634 34.5998 23.9236C34.76 24.0838 34.8401 24.2751 34.8401 24.4975V30.5636C34.8401 30.7905 34.76 30.9796 34.5998 31.1308C34.4486 31.291 34.2595 31.3711 34.0326 31.3711H34.0192C33.7968 31.3711 33.6055 31.291 33.4453 31.1308C33.2852 30.9796 33.2051 30.7905 33.2051 30.5636V24.4975C33.2051 24.2751 33.2852 24.0838 33.4453 23.9236C33.6055 23.7634 33.7968 23.6833 34.0192 23.6833H34.0326Z" fill="white"/>
        <path d="M39.9427 23.6833C40.3431 23.6833 40.7301 23.7434 41.1038 23.8635C41.482 23.9836 41.6711 24.2417 41.6711 24.6376V24.671C41.6711 24.9424 41.5621 25.1582 41.3441 25.3183C41.1928 25.4251 41.0371 25.4785 40.8769 25.4785C40.7924 25.4785 40.7056 25.4651 40.6167 25.4384C40.3987 25.3673 40.174 25.3317 39.9427 25.3317C39.3287 25.3317 38.806 25.5474 38.3744 25.979C37.9473 26.4105 37.7338 26.9333 37.7338 27.5472C37.7338 28.1567 37.9473 28.6773 38.3744 29.1088C38.806 29.5403 39.3287 29.7561 39.9427 29.7561C40.174 29.7561 40.3987 29.7205 40.6167 29.6493C40.7012 29.6226 40.7857 29.6093 40.8703 29.6093C41.0349 29.6093 41.1928 29.6627 41.3441 29.7695C41.5621 29.9296 41.6711 30.1476 41.6711 30.4235C41.6711 30.815 41.482 31.073 41.1038 31.1976C40.7301 31.3132 40.3431 31.3711 39.9427 31.3711C38.8838 31.3711 37.9785 30.9951 37.2266 30.2433C36.4747 29.4914 36.0988 28.5861 36.0988 27.5272C36.0988 26.4684 36.4747 25.563 37.2266 24.8111C37.9785 24.0593 38.8838 23.6833 39.9427 23.6833Z" fill="white"/>
        <path d="M47.1851 25.5529C46.6236 25.3046 46.0583 25.2905 45.4891 25.5106C44.9239 25.7326 44.5172 26.1243 44.2689 26.6858L44.25 26.7285L48.3391 26.7053C48.1964 26.2141 47.8117 25.83 47.1851 25.5529ZM50.1369 27.5076C50.1407 27.631 50.1193 27.7455 50.0725 27.8513C50.0347 27.9367 49.9806 28.015 49.9103 28.086C49.7566 28.2467 49.5652 28.3274 49.3362 28.3283C48.6532 28.3328 47.7552 28.3394 46.6422 28.3482C45.2604 28.3598 44.4491 28.3683 44.2083 28.3738C44.3448 28.9011 44.7406 29.3096 45.3957 29.5993C45.8311 29.7919 46.2824 29.8382 46.7498 29.7384C47.2072 29.6391 47.5932 29.4207 47.9079 29.0831C48.1734 28.8016 48.4832 28.7392 48.8372 28.8957C49.0894 29.0073 49.2441 29.2021 49.301 29.4803C49.3371 29.6519 49.3236 29.8089 49.2606 29.9513C49.2228 30.0367 49.1678 30.117 49.0957 30.1921C48.548 30.7817 47.8785 31.157 47.0874 31.3179C46.281 31.4915 45.4994 31.411 44.7425 31.0763C43.7742 30.6481 43.0982 29.9381 42.7147 28.9464C42.3311 27.9547 42.3535 26.9746 42.7817 26.0062C43.2099 25.0379 43.9199 24.3619 44.9116 23.9784C45.9033 23.5948 46.8834 23.6172 47.8518 24.0454C48.5516 24.3549 49.1058 24.8286 49.5145 25.4666C49.9226 26.0946 50.1301 26.775 50.1369 27.5076Z" fill="white"/>
    </g>
    <defs>
        <clipPath id="clip0_31_18">
            <rect width="54.9994" height="35" fill="white"/>
        </clipPath>
        <clipPath id="clip1_31_18">
            <rect width="46" height="16" fill="white" transform="translate(4.49969)"/>
        </clipPath>
    </defs>
</svg>
