<svg width="24" height="20" viewBox="0 0 24 20" fill="none" xmlns="http://www.w3.org/2000/svg">
    <path fill-rule="evenodd" clip-rule="evenodd" d="M6 3.90823C6 4.11651 5.94455 4.32111 5.83922 4.50149C5.7339 4.68186 5.58242 4.83164 5.4 4.93578L1.8 6.99087C1.61758 7.09501 1.41065 7.14984 1.20001 7.14984C0.989366 7.14984 0.782435 7.09502 0.600013 6.99088C0.417591 6.88674 0.266105 6.73696 0.160781 6.55658C0.0554567 6.37621 5.35105e-06 6.1716 0 5.96332V1.85314C5.35105e-06 1.64486 0.0554567 1.44025 0.160781 1.25988C0.266105 1.0795 0.417591 0.929723 0.600013 0.825585C0.782435 0.721448 0.989366 0.666625 1.20001 0.666626C1.41065 0.666627 1.61758 0.721453 1.8 0.825593L5.4 2.88069C5.58242 2.98482 5.7339 3.13461 5.83922 3.31498C5.94455 3.49535 6 3.69996 6 3.90823ZM1.2 9.84095C0.88174 9.84095 0.576515 9.96596 0.351472 10.1885C0.126428 10.411 0 10.7128 0 11.0275C0 11.3422 0.126428 11.644 0.351472 11.8665C0.576515 12.089 0.88174 12.214 1.2 12.214H22.8C23.1183 12.214 23.4235 12.089 23.6485 11.8665C23.8736 11.644 24 11.3422 24 11.0275C24 10.7128 23.8736 10.411 23.6485 10.1885C23.4235 9.96596 23.1183 9.84095 22.8 9.84095H1.2ZM8.4 3.90823C8.4 3.59354 8.52643 3.29174 8.75147 3.06922C8.97652 2.8467 9.28174 2.72169 9.6 2.72169H22.8C23.1183 2.72169 23.4235 2.8467 23.6485 3.06922C23.8736 3.29174 24 3.59354 24 3.90823C24 4.22292 23.8736 4.52472 23.6485 4.74724C23.4235 4.96976 23.1183 5.09478 22.8 5.09478H9.6C9.28174 5.09478 8.97652 4.96976 8.75147 4.74724C8.52643 4.52472 8.4 4.22292 8.4 3.90823ZM1.2 16.9602C0.88174 16.9602 0.576515 17.0852 0.351472 17.3077C0.126428 17.5303 0 17.8321 0 18.1467C0 18.4614 0.126428 18.7632 0.351472 18.9858C0.576515 19.2083 0.88174 19.3333 1.2 19.3333H22.8C23.1183 19.3333 23.4235 19.2083 23.6485 18.9858C23.8736 18.7632 24 18.4614 24 18.1467C24 17.8321 23.8736 17.5303 23.6485 17.3077C23.4235 17.0852 23.1183 16.9602 22.8 16.9602H1.2Z" fill="white"/>
</svg>
