<svg width="24" height="20" viewBox="0 0 24 20" fill="none" xmlns="http://www.w3.org/2000/svg">
    <path d="M12.4259 1.96452C15.0721 -0.654239 19.3596 -0.654898 22.0062 1.96289C24.6671 4.57196 24.6616 8.84864 22.0078 11.4749L14.402 19.0018C13.0571 20.3327 10.9033 20.3327 9.55843 19.0019L1.96867 11.4908C0.71307 10.2224 0 8.53038 0 6.73066C0 4.94054 0.684321 3.24331 1.9739 1.96621C4.60026 -0.657567 8.8912 -0.653038 11.5356 1.98795C11.7703 2.21874 12.1703 2.22238 12.4192 1.97114L12.4259 1.96452ZM13.7496 3.31925C12.7857 4.28808 11.2029 4.32304 10.2137 3.34448L10.2102 3.34099C8.2958 1.42734 5.18706 1.43205 3.29998 3.31861L3.29658 3.322C2.37495 4.23408 1.88598 5.43948 1.88598 6.73066C1.88598 8.01239 2.39069 9.22332 3.30019 10.1438L10.8794 17.6444C11.4907 18.2493 12.4697 18.2493 13.081 17.6444L20.6868 10.1174C22.5916 8.2324 22.5867 5.18358 20.6902 3.3253L20.6868 3.32193C18.7749 1.42954 15.6632 1.42853 13.7496 3.31925Z" fill="white"/>
</svg>
