<svg width="20" height="28" viewBox="0 0 20 28" fill="none" xmlns="http://www.w3.org/2000/svg">
    <path d="M14.2484 0.5C13.709 0.5 13.2123 0.696092 12.8492 1.06494C12.4861 1.43379 12.2931 1.93825 12.2931 2.48626V3.96955C11.4576 3.34221 10.4243 2.97131 9.3056 2.97131C6.52725 2.97131 4.27494 5.2592 4.27494 8.08145V16.2577C4.27494 19.0799 6.52725 21.3678 9.3056 21.3678C12.084 21.3678 14.3363 19.0799 14.3363 16.2577V12.154C14.8421 12.1338 15.3008 11.9388 15.6393 11.5907C15.996 11.2238 16.1814 10.7258 16.1814 10.1923V8.47845C16.1814 8.35622 16.2789 8.25713 16.3992 8.25713H17.8395C18.3654 8.25713 18.8498 8.06841 19.2049 7.71227C19.5603 7.35585 19.75 6.86778 19.75 6.33926C19.75 5.80352 19.5629 5.31209 19.2019 4.95471C18.8427 4.59905 18.3573 4.4214 17.8395 4.4214H16.3992C16.2789 4.4214 16.1814 4.32231 16.1814 4.20008V2.48626C16.1814 1.94647 15.9994 1.44275 15.6421 1.07077C15.2833 0.69717 14.7892 0.5 14.2484 0.5ZM13.6003 2.48626C13.6003 2.25911 13.6766 2.10241 13.7736 2.00389C13.8706 1.90536 14.0248 1.82787 14.2484 1.82787C14.4708 1.82787 14.6164 1.90428 14.7064 1.99806C14.798 2.09346 14.8742 2.2509 14.8742 2.48626V4.20008C14.8742 5.05567 15.557 5.74926 16.3992 5.74926H17.8395C18.0624 5.74926 18.2054 5.8224 18.2895 5.90561C18.3718 5.98712 18.4428 6.12264 18.4428 6.33926C18.4428 6.54031 18.3744 6.67921 18.2865 6.76737C18.1983 6.8558 18.0542 6.92927 17.8395 6.92927H16.3992C15.557 6.92927 14.8742 7.62286 14.8742 8.47845V10.1923C14.8742 10.4111 14.8014 10.5629 14.7092 10.6576C14.6183 10.7511 14.4711 10.8279 14.2484 10.8279C13.8387 10.8279 13.6003 10.5703 13.6003 10.1923V8.47845C13.6003 7.62286 12.9175 6.92927 12.0752 6.92927H10.6349C10.437 6.92927 10.3003 6.85978 10.2135 6.7705C10.1264 6.68093 10.0541 6.53459 10.0541 6.31647C10.0541 6.1165 10.1216 5.98485 10.2045 5.90284C10.289 5.81925 10.4282 5.74926 10.6349 5.74926H12.0752C12.9175 5.74926 13.6003 5.05567 13.6003 4.20008V2.48626Z" fill="white"/>
    <path d="M16.3481 12.1696C16.3481 11.6051 16.7986 11.1475 17.3542 11.1475C17.9099 11.1475 18.3604 11.6051 18.3604 12.1696V16.2577C18.3582 20.9406 14.8928 24.8743 10.3113 25.3946V27.5H8.29906V25.3946C3.71755 24.8743 0.252188 20.9406 0.25 16.2577V12.1696C0.25 11.6051 0.700461 11.1475 1.25613 11.1475C1.8118 11.1475 2.26226 11.6051 2.26226 12.1696V16.2577C2.26226 20.2088 5.41549 23.4119 9.30519 23.4119C13.1949 23.4119 16.3481 20.2088 16.3481 16.2577V12.1696Z" fill="white"/>
</svg>
