<svg width="29" height="28" viewBox="0 0 29 28" fill="none" xmlns="http://www.w3.org/2000/svg">
    <path d="M18.0558 18.9672C16.4504 20.2133 14.4304 20.8008 12.4071 20.6101C10.3838 20.4194 8.50924 19.4648 7.16495 17.9406C5.82067 16.4164 5.10773 14.4373 5.17127 12.406C5.2348 10.3747 6.07004 8.44399 7.50695 7.00683C8.94411 5.56991 10.8748 4.73468 12.9061 4.67115C14.9374 4.60761 16.9166 5.32054 18.4407 6.66483C19.9649 8.00911 20.9195 9.8837 21.1102 11.907C21.3009 13.9303 20.7134 15.9503 19.4673 17.5557L23.5153 21.6037C23.6468 21.7258 23.7429 21.881 23.7935 22.0532C23.8441 22.2253 23.8474 22.4078 23.8029 22.5816C23.7585 22.7554 23.668 22.914 23.541 23.0407C23.414 23.1674 23.2551 23.2575 23.0812 23.3015C22.9076 23.346 22.7252 23.3429 22.5532 23.2925C22.3812 23.2421 22.226 23.1463 22.1038 23.0152L18.0558 18.9672ZM19.1477 12.6554C19.1595 11.8613 19.0134 11.0727 18.7176 10.3356C18.4219 9.59842 17.9826 8.92745 17.4252 8.36166C16.8677 7.79588 16.2034 7.34658 15.4707 7.0399C14.7381 6.73323 13.9518 6.57529 13.1575 6.57529C12.3633 6.57529 11.577 6.73323 10.8443 7.0399C10.1117 7.34658 9.44735 7.79588 8.88994 8.36166C8.33253 8.92745 7.89318 9.59842 7.59746 10.3356C7.30174 11.0727 7.15555 11.8613 7.16739 12.6554C7.19085 14.2287 7.83227 15.7295 8.95309 16.8337C10.0739 17.938 11.5842 18.5569 13.1575 18.5569C14.7309 18.5569 16.2412 17.938 17.362 16.8337C18.4828 15.7295 19.1242 14.2287 19.1477 12.6554Z" fill="#76878F"/>
</svg>
