<svg width="29" height="28" viewBox="0 0 29 28" fill="none" xmlns="http://www.w3.org/2000/svg">
    <path d="M11.5718 15.6683C10.4624 15.6683 9.39839 16.1078 8.61391 16.8899C7.82943 17.6721 7.38871 18.733 7.38871 19.8392L7.38871 21.5075C7.38871 21.9682 7.76328 22.3417 8.22533 22.3417C8.68738 22.3417 9.06195 21.9682 9.06195 21.5075V19.8392C9.06195 19.1755 9.32638 18.5389 9.79707 18.0696C10.2678 17.6003 10.9061 17.3367 11.5718 17.3367H17.4281C18.0938 17.3367 18.7322 17.6003 19.2028 18.0696C19.6735 18.5389 19.938 19.1755 19.938 19.8392V21.5075C19.938 21.9682 20.3125 22.3417 20.7746 22.3417C21.2366 22.3417 21.6112 21.9682 21.6112 21.5075V19.8392C21.6112 18.733 21.1705 17.6721 20.386 16.8899C19.6015 16.1078 18.5375 15.6683 17.4281 15.6683H11.5718Z" fill="#76878F"/>
    <path d="M21.1873 16.9163H21.4922C22.074 16.9163 22.632 17.1467 23.0434 17.5569C23.4548 17.9671 23.6859 18.5234 23.6859 19.1035V20.5617C23.6859 20.9643 24.0133 21.2908 24.4171 21.2908C24.8209 21.2908 25.1483 20.9643 25.1483 20.5617V19.1035C25.1483 18.1367 24.7631 17.2095 24.0775 16.5259C23.3918 15.8422 22.4619 15.4581 21.4922 15.4581L19.2792 15.4581C19.8412 15.6944 20.3581 16.0383 20.7979 16.4769C20.9374 16.6159 21.0673 16.7627 21.1873 16.9163Z" fill="#76878F"/>
    <path d="M9.72076 15.4581L7.50771 15.4581C6.53806 15.4581 5.60812 15.8422 4.92247 16.5259C4.23682 17.2095 3.85162 18.1367 3.85162 19.1035V20.5617C3.85162 20.9643 4.179 21.2908 4.58284 21.2908C4.98668 21.2908 5.31406 20.9643 5.31406 20.5617L5.31406 19.1035C5.31406 18.5234 5.54518 17.9671 5.95657 17.5569C6.36796 17.1467 6.92592 16.9163 7.50771 16.9163H7.81259C7.93259 16.7627 8.06255 16.6159 8.20204 16.4769C8.64186 16.0383 9.15869 15.6944 9.72076 15.4581Z" fill="#76878F"/>
    <path d="M14.5 5.65833C12.1897 5.65833 10.3169 7.52567 10.3169 9.82916C10.3169 12.1326 12.1897 14 14.5 14C16.8102 14 18.683 12.1326 18.683 9.82916C18.683 7.52567 16.8102 5.65833 14.5 5.65833ZM11.9901 9.82916C11.9901 8.44707 13.1138 7.32666 14.5 7.32666C15.8861 7.32666 17.0098 8.44707 17.0098 9.82916C17.0098 11.2113 15.8861 12.3317 14.5 12.3317C13.1138 12.3317 11.9901 11.2113 11.9901 9.82916Z" fill="#76878F"/>
    <path d="M17.3489 13.641C17.8281 13.8711 18.3654 14 18.933 14C20.9522 14 22.589 12.3679 22.589 10.3546C22.589 8.34132 20.9522 6.70923 18.933 6.70923C18.6696 6.70923 18.4128 6.73699 18.1652 6.78973C18.5051 7.19703 18.7781 7.66192 18.9672 8.16764C20.163 8.18591 21.1266 9.15805 21.1266 10.3546C21.1266 11.5626 20.1445 12.5418 18.933 12.5418C18.7675 12.5418 18.6063 12.5236 18.4513 12.4889C18.1509 12.9319 17.7777 13.3216 17.3489 13.641Z" fill="#76878F"/>
    <path d="M10.5487 12.4889C10.3937 12.5236 10.2325 12.5418 10.067 12.5418C8.85546 12.5418 7.87333 11.5626 7.87333 10.3546C7.87333 9.15806 8.83697 8.18592 10.0327 8.16764C10.2218 7.66192 10.4948 7.19703 10.8347 6.78973C10.5871 6.73698 10.3303 6.70923 10.067 6.70923C8.04778 6.70923 6.41089 8.34132 6.41089 10.3546C6.41089 12.3679 8.04778 14 10.067 14C10.6345 14 11.1718 13.8711 11.6511 13.641C11.2222 13.3216 10.849 12.9319 10.5487 12.4889Z" fill="#76878F"/>
</svg>
